<svg id="Calque_1" data-name="Calque 1" xmlns="http://www.w3.org/2000/svg" viewBox="0 0 962.25 373.64"><defs><style>.cls-1{fill:#1a1a2c;}.cls-2{fill:#fbb03b;}</style></defs><path class="cls-1" d="M228.18,598.26c7-54,54.64-94.75,107-94.75,48.46,0,73,34.91,67.36,73.77-4.51,31.19-28.23,63.24-60.8,63.24-18.9,0-24.51-10.76-20.79-28.25-2.3,8.07-11.63,13.37-21.11,13.37-15.74,0-25.78-14.48-22.46-34,3.4-20.11,19.21-37.68,40.09-37.21,11.62.24,16.6,5.86,16.13,12.67l7-12H359l-15.41,49.55c-.24.87-.87,3.08-1.19,4.51-1.34,5.93-2.13,12.19,4.35,12.19,12.33,0,24.27-22.09,27.67-40,5.22-27.87-9.09-52.88-43.56-52.88-38.66,0-69.9,31.58-75.19,67.28-4.83,32.61,14.23,55.09,45.06,55.09a46,46,0,0,0,17.95-3.32L318,670.28c-7.12,2.93-13.76,4.2-23,4.2C250,674.48,222.25,644.72,228.18,598.26Zm99.07-10.85c1.27-6.49-.63-12.74-8.93-12.74-9.1,0-17.16,7.44-18.66,17.81-1.35,8.94,3.32,13.06,9.17,13.06C317.6,605.54,325.51,596.43,327.25,587.41Z" transform="translate(-18.75 -313.49)"/><path class="cls-2" d="M29.15,469.1l4.2-23.6c3.4-18.7-3-34-14.6-34L22.35,393c11.6,0,24-15.3,27.9-34l3.4-15.9c3.5-18.4,15.7-29.6,34.2-29.6h21.6l-4.7,24.2-13.4.3c-7.1.2-11.5,6.6-13.7,17l-1.4,7.2c-4.7,22-17.4,40-28.5,40,11.1,0,16.8,18,12.9,40.11l-2.3,12.9c-2.1,10.6-.1,19.3,6.5,19.3h13.3l-4.7,24.2H51.85C35.25,498.7,26,485.4,29.15,469.1Z" transform="translate(-18.75 -313.49)"/><path class="cls-2" d="M888.79,687.13l4.71-24.2h13.3c6.6,0,12-8.7,14-19.3l2.8-12.9c4.7-22.1,17.4-40.1,28.5-40.1-11.1,0-16.9-18-13-40l1.4-7.2c1.8-10.4-.1-16.8-7.1-17l-13.3-.3,4.7-24.2h21.6c18.5,0,26.4,11.2,22.7,29.6l-2.8,15.9c-3.3,18.7,3.1,34,14.7,34l-3.6,18.51c-11.6,0-23.9,15.3-27.8,34l-5,23.6c-3.1,16.3-17.6,29.6-34.2,29.6Z" transform="translate(-18.75 -313.49)"/><path class="cls-1" d="M338,331.67,305.69,497.84h-15l-61.27-80.43-15.29,78.9H169.59L201.9,330.24h15.19l61,80.13,15.29-78.7Z" transform="translate(-18.75 -313.49)"/><path class="cls-1" d="M403.15,372.45l-5.1,26.6h46.79l-7.13,36.5h-46.8l-11.82,60.86H334.54l32.11-165H469l-8.05,41Z" transform="translate(-18.75 -313.49)"/><path class="cls-1" d="M461.36,414.24c6.83-52,48.83-87.57,98.58-84.81,46.9,2.54,74.42,37.82,67.9,86.24-7,52.2-49.45,86.86-98.69,84.21C482.77,497.33,454.94,462.67,461.36,414.24Zm122,.62c4.18-25.49-9-43.94-30.79-44.55-22.94-.82-42.61,18.14-46.79,43.93-4,24.47,8.05,43.84,30.89,44.56C560.35,459.61,579.31,439.83,583.39,414.86Z" transform="translate(-18.75 -313.49)"/><path class="cls-1" d="M498.56,647.63l-5.1,25.69H397.63L429.54,509h26.61l-27,138.64Z" transform="translate(-18.75 -313.49)"/><path class="cls-1" d="M567.68,534.37l-8.16,42.1H617l-5,25.69H554.53l-8.87,45.47h67.08l-5,25.69H514.15L546.06,509h93.59l-4.89,25.38Z" transform="translate(-18.75 -313.49)"/><path class="cls-1" d="M724.16,534.57H655.45l4.9-25.58H771L675.43,647.63h68.72l-5.1,25.69H628.44Z" transform="translate(-18.75 -313.49)"/><path class="cls-1" d="M818,534.37l-8.16,42.1h57.5l-5,25.69H804.8l-8.86,45.47H863l-5,25.69H764.43L796.34,509h93.59L885,534.37Z" transform="translate(-18.75 -313.49)"/><path class="cls-2" d="M952.76,473.32l-28.52-6.47a135.83,135.83,0,0,0-16.44-40.09l18.8-29.39a6.44,6.44,0,0,0-.87-8L899.58,363.2a6.44,6.44,0,0,0-8-.89L861.9,381a135.77,135.77,0,0,0-39.52-16.12l-6.23-28.3a6.42,6.42,0,0,0-6.28-5.05h-37a6.44,6.44,0,0,0-6.28,5l-6.42,28.29a135.69,135.69,0,0,0-39.87,16.27l-29.65-19a6.43,6.43,0,0,0-8,.87L656.5,389.18a6.44,6.44,0,0,0-.89,8q9.4,14.93,18.8,29.84a135.78,135.78,0,0,0-16.27,39.82L630.08,473a6.44,6.44,0,0,0-5.06,6.29v18.64h69.72a96.25,96.25,0,0,1,192.49,0h70.54V479.6A6.44,6.44,0,0,0,952.76,473.32Z" transform="translate(-18.75 -313.49)"/><polygon class="cls-1" points="147.88 55.76 155.4 17.02 109.62 17.02 102.1 55.76 147.88 55.76"/><polygon class="cls-1" points="95.17 88.31 76.83 182.76 122.61 182.76 140.95 88.31 95.17 88.31"/></svg>