<?xml version="1.0" encoding="UTF-8" standalone="no"?>
<!-- Created with Inkscape (http://www.inkscape.org/) -->

<svg
   width="200mm"
   height="200mm"
   viewBox="0 0 200 200"
   version="1.1"
   id="svg185"
   xml:space="preserve"
   sodipodi:docname="classic_architecture.svg"
   inkscape:version="1.2.1 (9c6d41e410, 2022-07-14)"
   xmlns:inkscape="http://www.inkscape.org/namespaces/inkscape"
   xmlns:sodipodi="http://sodipodi.sourceforge.net/DTD/sodipodi-0.dtd"
   xmlns="http://www.w3.org/2000/svg"
   xmlns:svg="http://www.w3.org/2000/svg"><sodipodi:namedview
     id="namedview187"
     pagecolor="#ffffff"
     bordercolor="#666666"
     borderopacity="1.0"
     inkscape:showpageshadow="2"
     inkscape:pageopacity="0.0"
     inkscape:pagecheckerboard="0"
     inkscape:deskcolor="#d1d1d1"
     inkscape:document-units="mm"
     showgrid="false"
     inkscape:zoom="0.84096521"
     inkscape:cx="454.83451"
     inkscape:cy="385.86614"
     inkscape:window-width="1920"
     inkscape:window-height="1010"
     inkscape:window-x="1913"
     inkscape:window-y="-6"
     inkscape:window-maximized="1"
     inkscape:current-layer="layer1" /><defs
     id="defs182"><marker
       style="overflow:visible"
       id="TriangleStart"
       refX="0"
       refY="0"
       orient="auto-start-reverse"
       inkscape:stockid="TriangleStart"
       markerWidth="5.3244081"
       markerHeight="6.155385"
       viewBox="0 0 5.3244081 6.1553851"
       inkscape:isstock="true"
       inkscape:collect="always"
       preserveAspectRatio="xMidYMid"><path
         transform="scale(0.5)"
         style="fill:context-stroke;fill-rule:evenodd;stroke:context-stroke;stroke-width:1pt"
         d="M 5.77,0 -2.88,5 V -5 Z"
         id="path135" /></marker></defs><g
     inkscape:label="Layer 1"
     inkscape:groupmode="layer"
     id="layer1"
     transform="translate(-13.611763,-25.245762)"><g
       id="g10685"
       transform="translate(0.29326291,13.760211)"><path
         style="fill:#030303;stroke:none;stroke-width:1"
         d="m 43.281913,190.0529 h 2.209318 c 0,-4.92751 -0.515655,-20.50983 6.630236,-21.41492 7.228965,-0.91465 7.362105,17.17892 7.362105,21.41492 h 2.20932 c -7.4e-4,-6.45636 -0.70219,-12.98784 -2.761646,-19.14742 -1.176093,-3.51723 -4.477918,-6.49834 -4.434542,-10.31015 0.170117,-14.94456 18.373568,-37.3058 29.198048,-16.20166 2.60037,5.07112 5.50194,11.82721 5.07407,17.67454 -0.23125,3.16963 -2.69169,5.86353 -3.69472,8.83727 -2.08898,6.19566 -2.42647,13.39255 -2.42721,19.89825 1.77516,-0.0997 0.66681,0.004 1.83549,-0.0105 -0.18696,-6.65142 1.86134,-17.97112 4.08981,-20.51147 2.76533,-3.1527 4.90349,0.0447 6.44706,3.04418 2.75355,5.35023 3.4956,10.85979 3.4956,16.727 h 2.209318 c -0.001,-11.75651 -4.234528,-18.38152 -8.180368,-28.72113 -2.27118,-5.95117 -3.47339,-11.54541 -6.35949,-17.46712 -2.72041,-5.58148 -6.76503,-8.9357 -9.74503,-13.75054 -3.23437,-5.22577 0.69461,-20.04072 2.59234,-25.48817 2.33878,-6.713376 5.06449,-13.15648 8.95142,-19.147413 12.01353,-18.516073 34.318058,-20.777089 48.586568,-3.682197 11.34558,13.59246 14.96887,32.13821 14.96887,49.34143 -14.16099,3.367 -14.33627,19.74394 -17.1583,30.86417 -0.81819,3.22339 -3.69693,5.72287 -4.86639,8.90355 -2.18649,5.94896 -2.74397,12.8597 -3.01425,19.14742 h 2.20932 c 7.4e-4,-4.20875 0.49489,-22.04163 7.3828,-21.32949 6.81796,0.70551 7.24509,16.42702 7.34598,21.32949 h 1.47288 c 0,-6.18903 -0.13918,-12.47012 -2.12831,-18.41098 -1.28508,-3.83685 -4.86418,-6.91811 -4.6646,-11.04953 0.59357,-12.27571 13.29862,-35.18192 26.43669,-19.86987 1.52001,1.77113 2.76901,3.76099 3.73817,5.88046 2.17028,4.74783 4.71247,11.3964 3.80297,16.72822 -0.50004,2.92809 -2.85959,5.46586 -3.80297,8.31072 -1.9118,5.76485 -2.71157,12.35745 -2.76165,18.41098 h 2.20932 c 7.4e-4,-4.23673 0.39252,-22.05341 7.3828,-21.32949 6.73032,0.69741 7.24583,16.48004 7.34598,21.32949 h 1.47288 c 0,-7.17807 -0.29236,-14.67797 -3.33533,-21.34569 -1.11497,-2.44277 -3.40677,-4.16383 -4.33468,-6.66772 -2.69169,-7.25982 -2.50316,-14.36572 -6.65594,-21.32802 -2.65118,-4.44441 -9.21654,-7.59564 -11.00535,-11.87877 -2.13714,-5.11825 -1.00966,-12.75218 -2.2292,-18.31524 -4.98422,-22.730933 -17.5847,-52.13607 -45.34698,-50.784777 -23.538808,1.145825 -36.135898,29.58122 -39.911468,49.311897 -1.15798,6.05132 0.0189,14.10134 -2.50706,19.727 -1.98132,4.41274 -7.60839,8.69916 -10.453771,13.35567 -5.497278,7.62336 -6.033294,15.31353 -9.509696,21.98598 -5.513803,10.58295 -5.36916,14.89235 -5.370412,25.93967 z"
         id="path10104"
         sodipodi:nodetypes="ccccccccccccccccccccccccccccccccccccccccccccccccscsc" /><g
         id="g10652"><path
           style="fill:none;stroke:#000000;stroke-width:1.5;stroke-linecap:butt;stroke-linejoin:miter;stroke-dasharray:none;stroke-opacity:1;marker-end:url(#TriangleStart)"
           d="M 113.61176,32.167372 V 52.617585"
           id="path10106"
           sodipodi:nodetypes="cc" /><path
           style="fill:none;stroke:#000000;stroke-width:1.2;stroke-linecap:butt;stroke-linejoin:miter;stroke-dasharray:none;stroke-opacity:1;marker-end:url(#TriangleStart)"
           d="m 145.17369,71.080013 c 7.8538,7.06406 15.41761,20.162335 16.67479,37.125007"
           id="path10513"
           sodipodi:nodetypes="cc" /><path
           style="fill:none;stroke:#000000;stroke-width:1;stroke-linecap:butt;stroke-linejoin:miter;stroke-dasharray:none;stroke-opacity:1;marker-end:url(#TriangleStart)"
           d="m 137.20816,135.04767 c -2.38855,3.28732 -4.72727,6.87366 -6.29237,15.1017"
           id="path10517"
           sodipodi:nodetypes="cc" /><path
           style="fill:none;stroke:#000000;stroke-width:1;stroke-linecap:butt;stroke-linejoin:miter;stroke-dasharray:none;stroke-opacity:1;marker-end:url(#TriangleStart)"
           d="m 169.9285,134.73305 c 2.43141,2.7958 4.92425,6.14451 8.18009,16.36018"
           id="path10541"
           sodipodi:nodetypes="cc" /><path
           style="fill:none;stroke:#000000;stroke-width:0.7;stroke-linecap:butt;stroke-linejoin:miter;stroke-dasharray:none;stroke-opacity:1;marker-end:url(#TriangleStart)"
           d="m 185.01111,173.72995 c 0.84727,1.28279 1.55112,4.14312 1.97987,10.02964"
           id="path10547"
           sodipodi:nodetypes="cc" /><path
           style="fill:none;stroke:#000000;stroke-width:0.7;stroke-linecap:butt;stroke-linejoin:miter;stroke-dasharray:none;stroke-opacity:1;marker-end:url(#TriangleStart)"
           d="m 164.37659,174.1907 c -0.64491,2.304 -1.46383,2.17195 -1.72249,9.88351"
           id="path10557"
           sodipodi:nodetypes="cc" /><path
           style="fill:none;stroke:#000000;stroke-width:0.7;stroke-linecap:butt;stroke-linejoin:miter;stroke-dasharray:none;stroke-opacity:1;marker-end:url(#TriangleStart)"
           d="m 146.25903,173.74576 c 0.97955,1.53685 1.64143,4.23852 1.36972,10.36334"
           id="path10561"
           sodipodi:nodetypes="cc" /><path
           style="fill:none;stroke:#000000;stroke-width:0.7;stroke-linecap:butt;stroke-linejoin:miter;stroke-dasharray:none;stroke-opacity:1;marker-end:url(#TriangleStart)"
           d="m 124.56616,173.20867 c -0.78954,2.91193 -1.78145,5.11556 -1.77648,10.80828"
           id="path10565"
           sodipodi:nodetypes="cc" /><path
           style="fill:none;stroke:#000000;stroke-width:0.7;stroke-linecap:butt;stroke-linejoin:miter;stroke-dasharray:none;stroke-opacity:1;marker-end:url(#TriangleStart)"
           d="m 101.95179,174.67381 c 1.01028,2.11707 1.80398,4.99218 1.97987,10.02964"
           id="path10577"
           sodipodi:nodetypes="cc" /><path
           style="fill:none;stroke:#000000;stroke-width:0.7;stroke-linecap:butt;stroke-linejoin:miter;stroke-dasharray:none;stroke-opacity:1;marker-end:url(#TriangleStart)"
           d="m 81.317268,175.13456 c -0.696871,2.86502 -1.790543,4.34125 -1.72249,9.88351"
           id="path10579"
           sodipodi:nodetypes="cc" /><path
           style="fill:none;stroke:#000000;stroke-width:0.7;stroke-linecap:butt;stroke-linejoin:miter;stroke-dasharray:none;stroke-opacity:1;marker-end:url(#TriangleStart)"
           d="m 63.199708,174.68962 c 0.546549,2.28476 1.217113,2.95733 1.36972,10.36334"
           id="path10581"
           sodipodi:nodetypes="cc" /><path
           style="fill:none;stroke:#000000;stroke-width:0.7;stroke-linecap:butt;stroke-linejoin:miter;stroke-dasharray:none;stroke-opacity:1;marker-end:url(#TriangleStart)"
           d="m 41.506838,174.15253 c -0.850613,3.47353 -1.74072,6.92732 -1.77648,10.80828"
           id="path10583"
           sodipodi:nodetypes="cc" /><path
           style="fill:none;stroke:#000000;stroke-width:1;stroke-linecap:butt;stroke-linejoin:miter;stroke-dasharray:none;stroke-opacity:1;marker-end:url(#TriangleStart)"
           d="m 53.834219,139.45233 c -2.327911,3.88163 -4.770617,7.18928 -6.29237,15.1017"
           id="path10589"
           sodipodi:nodetypes="cc" /><path
           style="fill:none;stroke:#000000;stroke-width:1;stroke-linecap:butt;stroke-linejoin:miter;stroke-dasharray:none;stroke-opacity:1;marker-end:url(#TriangleStart)"
           d="m 86.554559,139.13771 c 3.411334,3.22832 6.435328,7.7155 8.18009,16.36018"
           id="path10591"
           sodipodi:nodetypes="cc" /><path
           style="fill:none;stroke:#000000;stroke-width:1.2;stroke-linecap:butt;stroke-linejoin:miter;stroke-dasharray:none;stroke-opacity:1;marker-end:url(#TriangleStart)"
           d="M 78.55898,73.067796 C 70.455096,81.781758 66.416005,92.777803 64.08652,108.93432"
           id="path10597"
           sodipodi:nodetypes="cc" /></g></g></g></svg>
