<?xml version="1.0" encoding="UTF-8" standalone="no"?>
<!-- Created with Inkscape (http://www.inkscape.org/) -->

<svg
   width="200mm"
   height="200mm"
   viewBox="0 0 200 200"
   version="1.1"
   id="svg185"
   xml:space="preserve"
   sodipodi:docname="classic_architecture.svg"
   inkscape:version="1.2.1 (9c6d41e410, 2022-07-14)"
   xmlns:inkscape="http://www.inkscape.org/namespaces/inkscape"
   xmlns:sodipodi="http://sodipodi.sourceforge.net/DTD/sodipodi-0.dtd"
   xmlns="http://www.w3.org/2000/svg"
   xmlns:svg="http://www.w3.org/2000/svg"><sodipodi:namedview
     id="namedview187"
     pagecolor="#ffffff"
     bordercolor="#666666"
     borderopacity="1.0"
     inkscape:showpageshadow="2"
     inkscape:pageopacity="0.0"
     inkscape:pagecheckerboard="0"
     inkscape:deskcolor="#d1d1d1"
     inkscape:document-units="mm"
     showgrid="false"
     inkscape:zoom="0.84096521"
     inkscape:cx="265.76605"
     inkscape:cy="385.86614"
     inkscape:window-width="1920"
     inkscape:window-height="1058"
     inkscape:window-x="-6"
     inkscape:window-y="-6"
     inkscape:window-maximized="1"
     inkscape:current-layer="layer1" /><defs
     id="defs182" /><g
     inkscape:label="Layer 1"
     inkscape:groupmode="layer"
     id="layer1"
     transform="translate(-13.611763,-25.245762)"><path
       style="fill:#030303;stroke:none;stroke-width:1"
       d="m 43.575176,203.81311 h 2.209318 c 0,-4.92751 -0.515655,-20.50983 6.630236,-21.41492 7.228965,-0.91465 7.362105,17.17892 7.362105,21.41492 h 2.20932 c -7.4e-4,-6.45636 -0.70219,-12.98784 -2.761646,-19.14742 -1.176093,-3.51723 -4.477918,-6.49834 -4.434542,-10.31015 0.170117,-14.94456 18.373568,-37.3058 29.198048,-16.20166 2.60037,5.07112 5.50194,11.82721 5.07407,17.67454 -0.23125,3.16963 -2.69169,5.86353 -3.69472,8.83727 -2.08898,6.19566 -2.42647,13.39255 -2.42721,19.89825 1.77516,-0.0997 0.66681,0.004 1.83549,-0.0105 -0.18696,-6.65142 1.86134,-17.97112 4.08981,-20.51147 2.76533,-3.1527 4.90349,0.0447 6.44706,3.04418 2.75355,5.35023 3.4956,10.85979 3.4956,16.727 h 2.209315 c -0.001,-11.75651 -4.234525,-18.38152 -8.180365,-28.72113 -2.27118,-5.95117 -3.47339,-11.54541 -6.35949,-17.46712 -2.72041,-5.58148 -6.76503,-8.9357 -9.74503,-13.75054 -3.23437,-5.22577 0.69461,-20.04072 2.59234,-25.48817 2.33878,-6.71337 5.06449,-13.15648 8.95142,-19.147412 12.013525,-18.516073 34.318055,-20.777089 48.586565,-3.682197 11.34558,13.592459 14.96887,32.138209 14.96887,49.341429 -14.16099,3.367 -14.33627,19.74394 -17.1583,30.86417 -0.81819,3.22339 -3.69693,5.72287 -4.86639,8.90355 -2.18649,5.94896 -2.74397,12.8597 -3.01425,19.14742 h 2.20932 c 7.4e-4,-4.20875 0.49489,-22.04163 7.3828,-21.32949 6.81796,0.70551 7.24509,16.42702 7.34598,21.32949 h 1.47288 c 0,-6.18903 -0.13918,-12.47012 -2.12831,-18.41098 -1.28508,-3.83685 -4.86418,-6.91811 -4.6646,-11.04953 0.59357,-12.27571 13.29862,-35.18192 26.43669,-19.86987 1.52001,1.77113 2.76901,3.76099 3.73817,5.88046 2.17028,4.74783 4.71247,11.3964 3.80297,16.72822 -0.50004,2.92809 -2.85959,5.46586 -3.80297,8.31072 -1.9118,5.76485 -2.71157,12.35745 -2.76165,18.41098 h 2.20932 c 7.4e-4,-4.23673 0.39252,-22.05341 7.3828,-21.32949 6.73032,0.69741 7.24583,16.48004 7.34598,21.32949 h 1.47288 c 0,-7.17807 -0.29236,-14.67797 -3.33533,-21.34569 -1.11497,-2.44277 -3.40677,-4.16383 -4.33468,-6.66772 -2.69169,-7.25982 -2.50316,-14.36572 -6.65594,-21.32802 -2.65118,-4.44441 -9.21654,-7.59564 -11.00535,-11.87877 -2.13714,-5.11825 -1.00966,-12.75218 -2.2292,-18.31524 -4.98422,-22.73093 -17.5847,-52.136069 -45.34698,-50.784776 -23.538805,1.145825 -36.135895,29.581216 -39.911465,49.311896 -1.15798,6.05132 0.0189,14.10134 -2.50706,19.727 -1.98132,4.41274 -7.60839,8.69916 -10.453771,13.35567 -5.497278,7.62336 -6.033294,15.31353 -9.509696,21.98598 -5.513803,10.58295 -5.36916,14.89235 -5.370412,25.93967 z"
       id="path10104"
       sodipodi:nodetypes="ccccccccccccccccccccccccccccccccccccccccccccccccscsc" /><g
       id="g10652"
       transform="translate(0.29326291,13.760211)"><g
         id="path10106"><path
           style="color:#000000;fill:#000000;-inkscape-stroke:none"
           d="m 112.86133,32.167969 v 20.449218 h 1.5 V 32.167969 Z"
           id="path395" /><g
           id="g385"><g
             id="path387"><path
               style="color:#000000;fill:#000000;fill-rule:evenodd;stroke-width:0.75pt;-inkscape-stroke:none"
               d="m 113.61176,56.945085 -3.75,-6.4875 h 7.5 z"
               id="path391" /><path
               style="color:#000000;fill:#000000;fill-rule:evenodd;-inkscape-stroke:none"
               d="m 108.99609,49.957031 4.61524,7.986328 0.43359,-0.748047 4.1836,-7.238281 z m 1.73243,1 h 5.76757 l -2.88281,4.990235 z"
               id="path393" /></g></g></g><g
         id="path10513"><path
           style="color:#000000;fill:#000000;-inkscape-stroke:none"
           d="m 145.57422,70.634766 -0.80274,0.890625 C 152.49351,78.470923 160.00425,91.441544 161.25,108.25 l 1.19727,-0.0898 C 161.17866,91.043302 153.55978,77.817339 145.57422,70.634766 Z"
           id="path423" /><g
           id="g413"><g
             id="path415"><path
               style="color:#000000;fill:#000000;fill-rule:evenodd;stroke-width:0.6pt;-inkscape-stroke:none"
               d="m 162.10436,111.65755 -3.37539,-4.95407 5.98358,-0.44347 z"
               id="path419" /><path
               style="color:#000000;fill:#000000;fill-rule:evenodd;-inkscape-stroke:none"
               d="m 165.375,105.81055 -7.36719,0.54492 4.15625,6.09961 0.30078,-0.62305 z m -1.32422,0.89843 -2.00586,4.1504 -2.5957,-3.8086 z"
               id="path421" /></g></g></g><g
         id="path10517"><path
           style="color:#000000;fill:#000000;-inkscape-stroke:none"
           d="m 136.80273,134.75391 c -2.39896,3.30165 -4.8017,7.01107 -6.3789,15.30273 l 0.98242,0.18555 c 1.553,-8.16441 3.8289,-11.62742 6.20703,-14.90039 z"
           id="path465" /><g
           id="g455"><g
             id="path457"><path
               style="color:#000000;fill:#000000;fill-rule:evenodd;stroke-width:0.5pt;-inkscape-stroke:none"
               d="m 130.37668,152.98355 -1.64777,-4.71598 4.91193,0.93433 z"
               id="path461" /><path
               style="color:#000000;fill:#000000;fill-rule:evenodd;-inkscape-stroke:none"
               d="m 128.22461,147.83203 2.02734,5.80664 0.37696,-0.4375 3.64257,-4.21875 z m 1.00976,0.87109 3.77735,0.71875 -2.50977,2.90821 z"
               id="path463" /></g></g></g><g
         id="path10541"><path
           style="color:#000000;fill:#000000;-inkscape-stroke:none"
           d="m 170.30664,134.4043 -0.75586,0.65625 c 2.41273,2.77431 4.83902,6.00816 8.08203,16.18359 l 0.95313,-0.30273 c -3.26866,-10.2559 -5.82921,-13.71983 -8.2793,-16.53711 z"
           id="path479" /><g
           id="g469"><g
             id="path471"><path
               style="color:#000000;fill:#000000;fill-rule:evenodd;stroke-width:0.5pt;-inkscape-stroke:none"
               d="m 178.98465,153.842 -3.69528,-3.36162 4.7639,-1.51831 z"
               id="path475" /><path
               style="color:#000000;fill:#000000;fill-rule:evenodd;-inkscape-stroke:none"
               d="m 180.50195,148.46875 -5.86328,1.86914 4.54883,4.13867 0.12305,-0.5625 z m -0.89648,0.98633 -0.82422,3.75195 -2.83984,-2.58398 z"
               id="path477" /></g></g></g><g
         id="path10547"><path
           style="color:#000000;fill:#000000"
           d="m 185.30273,173.53711 -0.58398,0.38476 c 0.76453,1.15753 1.4965,3.99626 1.92383,9.86329 l 0.69726,-0.0508 c -0.43017,-5.906 -1.1071,-8.78921 -2.03711,-10.19726 z"
           id="path493" /><g
           id="g483"><g
             id="path485"><path
               style="color:#000000;fill:#000000;fill-rule:evenodd;stroke-width:0.35pt"
               d="m 187.13768,185.77375 -1.9653,-2.89237 3.49075,-0.25425 z"
               id="path489" /><path
               style="color:#000000;fill:#000000;fill-rule:evenodd"
               d="m 189.04883,182.36523 -4.29688,0.3125 2.41992,3.56055 0.17579,-0.36328 z m -0.77149,0.52344 -1.17382,2.41992 -1.51172,-2.22461 z"
               id="path491" /></g></g></g><g
         id="path10557"><path
           style="color:#000000;fill:#000000;-inkscape-stroke:none"
           d="m 164.03906,174.0957 c -0.62324,2.2266 -1.47488,2.23038 -1.73437,9.9668 l 0.69922,0.0234 c 0.25782,-7.68668 1.0424,-7.41938 1.70898,-9.80078 z"
           id="path507" /><g
           id="g497"><g
             id="path499"><path
               style="color:#000000;fill:#000000;fill-rule:evenodd;stroke-width:0.35pt;-inkscape-stroke:none"
               d="m 162.5864,186.09257 -1.64753,-3.08446 3.49804,0.11733 z"
               id="path503" /><path
               style="color:#000000;fill:#000000;fill-rule:evenodd;-inkscape-stroke:none"
               d="m 160.54297,182.76172 2.02734,3.79687 0.21485,-0.34179 2.06445,-3.31055 z m 0.79297,0.49414 2.6875,0.0898 -1.42188,2.2793 z"
               id="path505" /></g></g></g><g
         id="path10561"><path
           style="color:#000000;fill:#000000"
           d="m 146.55469,173.55859 -0.58985,0.375 c 0.91804,1.44034 1.58485,4.06504 1.31446,10.16016 l 0.69922,0.0312 c 0.27302,-6.15451 -0.38277,-8.93304 -1.42383,-10.56641 z"
           id="path584" /><g
           id="g574"><g
             id="path576"><path
               style="color:#000000;fill:#000000;fill-rule:evenodd;stroke-width:0.35pt"
               d="m 147.53925,186.12662 -1.61411,-3.10209 3.49656,0.15512 z"
               id="path580" /><path
               style="color:#000000;fill:#000000;fill-rule:evenodd"
               d="m 145.53125,182.77344 1.98828,3.81836 0.2168,-0.33985 2.09961,-3.28711 z m 0.78906,0.50195 2.6875,0.11914 -1.44726,2.26563 z"
               id="path582" /></g></g></g><g
         id="path10565"><path
           style="color:#000000;fill:#000000"
           d="m 124.22852,173.11719 c -0.78184,2.88351 -1.79407,5.16694 -1.78907,10.90039 h 0.70118 c -0.005,-5.65198 0.96642,-7.77646 1.76367,-10.7168 z"
           id="path570" /><g
           id="g560"><g
             id="path562"><path
               style="color:#000000;fill:#000000;fill-rule:evenodd;stroke-width:0.35pt"
               d="m 122.79144,186.03645 -1.75264,-3.02597 3.5,-0.003 z"
               id="path566" /><path
               style="color:#000000;fill:#000000;fill-rule:evenodd"
               d="m 124.94336,182.77344 -4.30859,0.004 2.15625,3.72461 0.20312,-0.34961 z m -0.80859,0.46679 -1.34375,2.33008 -1.34766,-2.32617 z"
               id="path568" /></g></g></g><g
         id="path10577"><path
           style="color:#000000;fill:#000000;-inkscape-stroke:none"
           d="m 102.26758,174.52344 -0.63086,0.30078 c 0.98792,2.07021 1.77054,4.88522 1.94531,9.89062 l 0.69922,-0.0234 c -0.17701,-5.06951 -0.98103,-8.00405 -2.01367,-10.16797 z"
           id="path612" /><g
           id="g602"><g
             id="path604"><path
               style="color:#000000;fill:#000000;fill-rule:evenodd;stroke-width:0.35pt;-inkscape-stroke:none"
               d="m 104.00213,186.72172 -1.85458,-2.96459 3.49787,-0.12213 z"
               id="path608" /><path
               style="color:#000000;fill:#000000;fill-rule:evenodd;-inkscape-stroke:none"
               d="m 106.04102,183.38867 -4.30664,0.14844 2.2832,3.65039 0.1914,-0.35547 z m -0.79297,0.49414 -1.26172,2.37305 -1.42578,-2.2793 z"
               id="path610" /></g></g></g><g
         id="path10579"><path
           style="color:#000000;fill:#000000"
           d="m 80.976562,175.05273 c -0.68352,2.81014 -1.801049,4.3797 -1.732421,9.96875 l 0.701171,-0.008 c -0.06748,-5.49546 1.002671,-6.87697 1.712891,-9.79687 z"
           id="path598" /><g
           id="g588"><g
             id="path590"><path
               style="color:#000000;fill:#000000;fill-rule:evenodd;stroke-width:0.35pt"
               d="m 79.619573,187.03742 -1.787039,-3.00579 3.499736,-0.043 z"
               id="path594" /><path
               style="color:#000000;fill:#000000;fill-rule:evenodd"
               d="m 81.734375,183.75 -4.308594,0.0527 2.199219,3.70118 0.197266,-0.35157 z m -0.802734,0.47852 -1.31836,2.34179 -1.373047,-2.31054 z"
               id="path596" /></g></g></g><g
         id="path10581"><path
           style="color:#000000;fill:#000000;-inkscape-stroke:none"
           d="m 63.541016,174.60742 -0.681641,0.16406 c 0.558003,2.33264 1.207194,2.90374 1.359375,10.28907 l 0.701172,-0.0156 c -0.153033,-7.42668 -0.843812,-8.20062 -1.378906,-10.4375 z"
           id="path640" /><g
           id="g630"><g
             id="path632"><path
               style="color:#000000;fill:#000000;fill-rule:evenodd;stroke-width:0.35pt;-inkscape-stroke:none"
               d="m 64.611033,187.07203 -1.812,-2.9908 3.499257,-0.0721 z"
               id="path636" /><path
               style="color:#000000;fill:#000000;fill-rule:evenodd;-inkscape-stroke:none"
               d="m 66.697266,183.76758 -4.306641,0.0879 2.230469,3.68359 0.193359,-0.35351 z m -0.798829,0.48242 -1.296875,2.35547 -1.394531,-2.29883 z"
               id="path638" /></g></g></g><g
         id="path10583"><path
           style="color:#000000;fill:#000000"
           d="m 41.166016,174.06836 c -0.849944,3.4708 -1.748921,6.95612 -1.785157,10.88867 l 0.699219,0.008 c 0.03529,-3.82936 0.916298,-7.25226 1.767578,-10.72851 z"
           id="path626" /><g
           id="g616"><g
             id="path618"><path
               style="color:#000000;fill:#000000;fill-rule:evenodd;stroke-width:0.35pt"
               d="m 39.711751,186.98022 -1.722031,-3.04349 3.499851,0.0322 z"
               id="path622" /><path
               style="color:#000000;fill:#000000;fill-rule:evenodd"
               d="m 37.587891,183.69922 2.11914,3.74805 0.205078,-0.34766 1.984375,-3.35938 z m 0.804687,0.47461 2.689453,0.0254 -1.365234,2.3164 z"
               id="path624" /></g></g></g><g
         id="path10589"><path
           style="color:#000000;fill:#000000;-inkscape-stroke:none"
           d="m 53.40625,139.19531 c -2.312998,3.85677 -4.819856,7.27919 -6.355469,15.26367 l 0.982422,0.18946 c 1.507891,-7.84034 3.887649,-11.03297 6.230469,-14.93946 z"
           id="path437" /><g
           id="g427"><g
             id="path429"><path
               style="color:#000000;fill:#000000;fill-rule:evenodd;stroke-width:0.5pt;-inkscape-stroke:none"
               d="m 46.996978,157.38711 -1.638174,-4.71932 4.910017,0.94431 z"
               id="path433" /><path
               style="color:#000000;fill:#000000;fill-rule:evenodd;-inkscape-stroke:none"
               d="m 44.853516,152.23047 2.017578,5.81055 0.376953,-0.43555 3.65039,-4.21094 z m 1.009765,0.875 3.775391,0.72461 -2.515625,2.90039 z"
               id="path435" /></g></g></g><g
         id="path10591"><path
           style="color:#000000;fill:#000000;-inkscape-stroke:none"
           d="m 86.898437,138.77539 -0.6875,0.72461 c 3.350475,3.17073 6.303971,7.52992 8.033204,16.09766 l 0.980468,-0.19922 c -1.760287,-8.72161 -4.853985,-13.33714 -8.326172,-16.62305 z"
           id="path451" /><g
           id="g441"><g
             id="path443"><path
               style="color:#000000;fill:#000000;fill-rule:evenodd;stroke-width:0.5pt;-inkscape-stroke:none"
               d="m 95.305421,158.32587 -3.306249,-3.74491 4.901171,-0.98921 z"
               id="path447" /><path
               style="color:#000000;fill:#000000;fill-rule:evenodd;-inkscape-stroke:none"
               d="m 97.400391,153.15039 -6.033204,1.21875 4.070313,4.60938 0.183594,-0.54688 z m -1,0.88281 -1.226563,3.64063 -2.541016,-2.88086 z"
               id="path449" /></g></g></g><g
         id="path10597"><path
           style="color:#000000;fill:#000000;-inkscape-stroke:none"
           d="M 78.119141,72.660156 C 69.911552,81.48563 65.830163,92.634208 63.492187,108.84961 l 1.1875,0.16992 c 2.320991,-16.097599 6.318197,-26.940535 14.31836,-35.542968 z"
           id="path409" /><g
           id="g399"><g
             id="path401"><path
               style="color:#000000;fill:#000000;fill-rule:evenodd;stroke-width:0.6pt;-inkscape-stroke:none"
               d="m 63.592469,112.36089 -2.228647,-5.565 5.93859,0.85624 z"
               id="path405" /><path
               style="color:#000000;fill:#000000;fill-rule:evenodd;-inkscape-stroke:none"
               d="m 60.734375,106.30078 2.744141,6.85156 0.427734,-0.54296 4.138672,-5.25391 z m 1.257812,0.99024 4.566407,0.6582 -2.853516,3.62109 z"
               id="path407" /></g></g></g></g></g></svg>
